<svg width="40" height="36" viewBox="0 0 40 36" fill="none" xmlns="http://www.w3.org/2000/svg">
<path d="M26.2399 24.6196L18.2573 16.637C18.2573 16.637 14.1079 20.7864 11.8554 23.0389C11.8554 23.0389 0.43472 11.3337 0.403105 11.1835C0.387298 11.4364 0.379395 11.6894 0.379395 11.9423C0.379395 13.4677 0.687634 15.0642 1.31202 16.6765C1.83365 18.028 2.57659 19.4349 3.52502 20.8496C5.0267 23.0942 7.09743 25.4337 9.6661 27.8048C13.9182 31.7328 18.1387 34.4517 18.3126 34.5623L19.3954 35.2578C19.8775 35.5661 20.494 35.5661 20.9761 35.2578L22.0589 34.5623C22.2407 34.4517 26.4454 31.7407 30.7054 27.8048C32.1044 26.5165 33.3531 25.2361 34.4438 23.9715L30.6659 20.1146L26.2399 24.6196Z" fill="#AA67E8"/>
<path d="M39.0357 7.27129C38.4192 5.84865 37.534 4.56036 36.4275 3.47757C35.321 2.38688 34.009 1.52539 32.5785 0.932622C31.0926 0.316143 29.4961 0 27.8838 0C25.6233 0 23.4182 0.616479 21.4977 1.78621C21.0393 2.06283 20.6046 2.37107 20.1936 2.71093C19.7826 2.37898 19.3479 2.07074 18.8895 1.78621C16.9689 0.616479 14.7638 0 12.5034 0C10.8753 0 9.29455 0.30824 7.80867 0.932622C6.36232 1.53329 5.06613 2.38688 3.95173 3.47757C2.84523 4.56036 1.95212 5.84865 1.34355 7.27129C0.806102 8.52006 0.489959 9.83205 0.403019 11.1836C0.395116 11.2942 11.8553 23.0389 11.8553 23.0389C14.1078 20.7864 18.2572 16.637 18.2572 16.637L26.2398 24.6196L30.6658 20.1146L34.4595 23.9874C34.4595 23.9874 36.7595 20.9998 36.8543 20.8575C37.8028 19.4428 38.5536 18.036 39.0673 16.6845C39.6838 15.0642 39.9999 13.4756 39.9999 11.9502C39.9999 10.33 39.668 8.75716 39.0357 7.27129Z" fill="#8A2BE2"/>
<path d="M34.4833 23.8925L30.7054 20.1146L26.2241 24.6038L18.2573 16.637L11.8554 23.0389L0 11.1835" stroke="white" stroke-width="1.18554" stroke-miterlimit="10" stroke-linecap="round" stroke-linejoin="round"/>
<path d="M30.6975 7.31079C28.6583 7.31079 27.0144 8.95474 27.0144 10.9939C27.0144 13.1911 29.3381 16.2181 30.3023 17.372C30.5157 17.625 30.8951 17.625 31.1085 17.372C32.0648 16.2181 34.3884 13.1911 34.3884 10.9939C34.3805 8.95474 32.7366 7.31079 30.6975 7.31079ZM30.6975 12.3138C30.3497 12.3138 30.0099 12.1715 29.7649 11.9265C29.5198 11.6815 29.3776 11.3416 29.3776 10.9939C29.3776 10.6461 29.5198 10.3062 29.7649 10.0612C30.0099 9.81622 30.3497 9.67396 30.6975 9.67396C31.0452 9.67396 31.3851 9.81622 31.6301 10.0612C31.8751 10.3062 32.0174 10.6461 32.0174 10.9939C32.0174 11.3416 31.8751 11.6815 31.6301 11.9265C31.3772 12.1715 31.0452 12.3138 30.6975 12.3138Z" fill="white"/>
</svg>
